<?xml version="1.0" ?><svg enable-background="new 0 0 24 24" width="512px" height="512px" id="Layer_1" version="1.1" viewBox="0 0 24 24" xml:space="preserve" xmlns="http://www.w3.org/2000/svg" xmlns:xlink="http://www.w3.org/1999/xlink"><g><path d="M22.1713867,7.3562379c0.1484375-0.9858675,0.0483398-3.5209553-0.8637695-5.9873295L21.1708984,1   l-0.3911133,0.0462962c-0.0961914,0.0112087-2.3491211,0.3011696-5.7329102,2.7461014   C14.3105469,3.6164718,13.2211914,3.5170565,12,3.5170565S9.6899414,3.6164718,8.953125,3.7923977   C5.5683594,1.3469785,3.3154297,1.0575049,3.2192383,1.0462962L2.828125,1L2.6914063,1.3689084   C1.7792969,3.8352826,1.6796875,6.3703704,1.828125,7.3562379C0.5986328,8.8737812,0,10.6208572,0,12.6895714   c0,6.6476612,3.4921875,10.3084793,9.8334961,10.3084793L12.0004883,23l2.1655273-0.0019493   C20.5073242,22.9980507,24,19.3372326,24,12.6895714C24,10.6208572,23.4013672,8.8732939,22.1713867,7.3562379z" fill="#333333"/><path d="M19.5366211,11.1315794c-1.293457-1.3084803-3.2001953-1.1608191-5.21875-1.0034113   c-0.7363281,0.0575047-1.4975586,0.1169586-2.2822266,0.1169586h-0.0708008c-0.784668,0-1.5458984-0.059454-2.2822266-0.1169586   c-2.0185547-0.1564331-3.9248047-0.305069-5.2197266,1.0038986C3.4921875,12.1164713,3,13.3435669,3,14.778265   c0,5.7451267,4.4287109,6.2256336,9.0356445,6.2256336C16.5712891,21.0038986,21,20.5233917,21,14.778265   C21,13.3435669,20.5078125,12.1164713,19.5366211,11.1315794z" fill="#E0C1A9"/><path d="M2.828125,1.2495127l0.3911133,0.0462962   C3.3154297,1.3070176,5.5683594,1.5964912,8.953125,4.0419102C9.6899414,3.8659844,10.7788086,3.7665691,12,3.7665691   s2.3105469,0.0994153,3.046875,0.275341c3.3837891-2.4449315,5.6367188-2.7348926,5.7329102-2.7461014l0.3911133-0.0462962   l0.1367188,0.3689084c0.6672974,1.8043981,0.8974609,3.6392546,0.9161987,4.8836503   c0.0111084-1.2386699-0.2017822-3.2013283-0.9161987-5.133163L21.1708984,1l-0.3911133,0.0462962   c-0.0961914,0.0112087-2.3491211,0.3011696-5.7329102,2.7461014C14.3105469,3.6164718,13.2211914,3.5170565,12,3.5170565   S9.6899414,3.6164718,8.953125,3.7923977C5.5683594,1.3469785,3.3154297,1.0575049,3.2192383,1.0462962L2.828125,1   L2.6914063,1.3689084C1.9771118,3.3003776,1.7644043,5.2627926,1.7756348,6.501462   C1.7942505,5.2570662,2.024231,3.4225147,2.6914063,1.6184211L2.828125,1.2495127z" fill="#FFFFFF" opacity="0.1"/><path d="M22.1929321,7.3546753c0.0236816-0.2418823,0.0361328-0.5344238,0.0308838-0.8848267   c-0.0031128,0.3434448-0.0202637,0.6417236-0.0524292,0.855835C22.1790771,7.335144,22.1853027,7.3451538,22.1929321,7.3546753z" fill="#82C342"/><path d="M14.1660156,22.7485371l-2.1655273,0.0019512l-2.1669922-0.0019512   c-6.298584,0-9.7823486-3.6150703-9.8291016-10.1778746C0.0039063,12.6108065,0,12.6491833,0,12.6895714   c0,6.6476612,3.4921875,10.3084793,9.8334961,10.3084793L12.0004883,23l2.1655273-0.0019493   C20.5073242,22.9980507,24,19.3372326,24,12.6895714c0-0.0403881-0.0039063-0.0787649-0.0043945-0.1189089   C23.9488525,19.1335278,20.4645996,22.7485371,14.1660156,22.7485371z" fill="#010101" opacity="0.2"/><path d="M1.7756348,6.4692383c-0.005249,0.350647,0.0072632,0.6434326,0.0309448,0.885437   C1.814209,7.3451538,1.8204346,7.335144,1.828125,7.3256836C1.7959595,7.1114502,1.7787476,6.8129272,1.7756348,6.4692383z" fill="#82C342"/><path d="M9.6826172,10.3530273c0.7363281,0.0576172,1.4975586,0.1171875,2.2822266,0.1171875   h0.0708008c0.784668,0,1.5458984-0.0595703,2.2822266-0.1171875c2.0185547-0.1577148,3.925293-0.3056641,5.21875,1.0053711   c0.9501343,0.9654541,1.4345703,2.1661987,1.4553833,3.5637817C20.9928589,14.8666992,21,14.8187256,21,14.762207   c0-1.4375-0.4921875-2.6669922-1.4633789-3.6538086c-1.293457-1.3110352-3.2001953-1.1630859-5.21875-1.0053711   c-0.7363281,0.0576172-1.4975586,0.1171875-2.2822266,0.1171875h-0.0708008c-0.784668,0-1.5458984-0.0595703-2.2822266-0.1171875   c-2.0185547-0.1567383-3.9248047-0.3056641-5.2197266,1.0058594C3.4921875,12.0952148,3,13.324707,3,14.762207   c0,0.0565186,0.0071411,0.1044922,0.0079956,0.1599731c0.020813-1.397583,0.505249-2.5983276,1.454895-3.5632935   C5.7578125,10.0473633,7.6640625,10.1962891,9.6826172,10.3530273z" fill="#010101" opacity="0.1"/><path d="M16,12c-1.1401367,0-2,1.5048828-2,3.5s0.8598633,3.5,2,3.5s2-1.5048828,2-3.5S17.1401367,12,16,12z" fill="#FFFFFF"/><path d="M16,12.5c-0.8551025,0-1.5,1.2898998-1.5,3s0.6448975,3,1.5,3s1.5-1.2898998,1.5-3S16.8551025,12.5,16,12.5   z" fill="#994822"/><circle cx="15.585227" cy="14.085227" fill="#FFFFFF" r="0.4147726"/><circle cx="12.085227" cy="18.085228" fill="#994822" r="0.4147726"/><g><path d="M12.0854492,19.5795898c-1.0776367,0-1.5073242-0.6821289-1.6420898-0.9750977l0.4541016-0.2089844    c0.0947266,0.2055664,0.3994141,0.684082,1.1879883,0.684082c0.5683594,0,0.96875-0.2314453,1.1894531-0.6884766    l0.4501953,0.2177734C13.4223633,19.2348633,12.840332,19.5795898,12.0854492,19.5795898z" fill="#994822"/></g><path d="M8,12c-1.1401367,0-2,1.5048828-2,3.5S6.8598633,19,8,19s2-1.5048828,2-3.5S9.1401367,12,8,12z" fill="#FFFFFF"/><path d="M8,12.5c-0.8551025,0-1.5,1.2898998-1.5,3s0.6448975,3,1.5,3s1.5-1.2898998,1.5-3S8.8551025,12.5,8,12.5z" fill="#994822"/><circle cx="7.5852275" cy="14.085227" fill="#FFFFFF" r="0.4147726"/><linearGradient gradientUnits="userSpaceOnUse" id="SVGID_1_" x1="0.6253095" x2="23.7135983" y1="5.7239532" y2="16.4901981"><stop offset="0" style="stop-color:#FFFFFF;stop-opacity:0.2"/><stop offset="1" style="stop-color:#FFFFFF;stop-opacity:0"/></linearGradient><path d="M22.1713867,7.3562379c0.1484375-0.9858675,0.0483398-3.5209553-0.8637695-5.9873295L21.1708984,1   l-0.3911133,0.0462962c-0.0961914,0.0112087-2.3491211,0.3011696-5.7329102,2.7461014   C14.3105469,3.6164718,13.2211914,3.5170565,12,3.5170565S9.6899414,3.6164718,8.953125,3.7923977   C5.5683594,1.3469785,3.3154297,1.0575049,3.2192383,1.0462962L2.828125,1L2.6914063,1.3689084   C1.7792969,3.8352826,1.6796875,6.3703704,1.828125,7.3562379C0.5986328,8.8737812,0,10.6208572,0,12.6895714   c0,6.6476612,3.4921875,10.3084793,9.8334961,10.3084793L12.0004883,23l2.1655273-0.0019493   C20.5073242,22.9980507,24,19.3372326,24,12.6895714C24,10.6208572,23.4013672,8.8732939,22.1713867,7.3562379z" fill="url(#SVGID_1_)"/></g><g/><g/><g/><g/><g/><g/><g/><g/><g/><g/><g/><g/><g/><g/><g/></svg>