<svg width="512" height="512" viewBox="0 0 512 512" fill="none" xmlns="http://www.w3.org/2000/svg">
<rect x="121" y="75" width="284" height="207" fill="white"/>
<path d="M457.983 68.3985C473.205 99.8301 426.947 103.191 429.319 117.226C433.668 142.53 430.703 180.09 427.342 217.056C421.609 279.722 468.46 429.764 370.805 490.057C352.42 501.523 308.732 507.849 265.637 508.837H265.439H265.242C222.147 507.849 172.528 501.523 154.144 490.057C56.6857 429.764 103.537 279.722 98.0015 217.056C94.4432 180.09 91.478 142.53 96.0247 117.226C98.3969 103.191 52.139 100.028 67.3606 68.3985C80.4077 41.3158 112.63 65.2355 120.735 56.7351C162.051 13.8378 212.263 2.37221 251.799 1.38379C255.753 1.38379 273.544 1.38379 273.544 1.38379C312.883 3.36062 363.095 14.0355 404.608 56.7351C412.714 65.2355 444.738 41.3158 457.983 68.3985ZM243.892 232.673C242.113 233.464 239.147 252.837 248.241 253.825C254.369 254.419 271.172 256.395 275.126 253.825C282.836 248.883 282.045 237.022 277.696 234.057C270.381 229.313 245.869 231.685 243.892 232.673ZM193.68 87.5737C173.319 85.2015 139.12 104.179 133.98 144.507C128.445 186.415 177.866 227.929 225.31 186.415C250.811 164.077 259.707 95.2834 193.68 87.5737ZM331.268 87.5737C265.242 95.2834 274.137 164.077 299.639 186.415C347.083 227.929 396.503 186.415 390.968 144.507C386.026 104.179 351.827 85.2015 331.268 87.5737Z" fill="#8CC5E7"/>
<path d="M262.672 191.753C275.126 189.974 304.976 204.207 302.999 221.01C300.627 240.581 226.1 243.151 222.147 219.824C219.775 205.591 231.042 196.497 262.672 191.753ZM430.9 349.307C424.772 349.109 420.819 341.004 420.819 336.062C420.819 327.166 422.005 316.689 428.528 312.142C441.971 302.851 452.646 349.504 430.9 349.307ZM94.2456 349.307C72.5004 349.504 83.1753 302.851 96.6178 312.142C103.141 316.689 104.327 327.166 104.327 336.062C104.327 341.004 100.374 349.109 94.2456 349.307ZM389.585 492.627C393.538 498.36 393.736 502.314 387.41 505.279C363.293 516.349 341.745 501.523 349.85 497.371C367.049 488.673 377.724 475.033 389.585 492.627ZM135.561 494.604C147.422 477.01 158.097 490.65 175.296 499.348C183.401 503.5 161.853 518.326 137.736 507.256C131.41 504.29 131.608 500.337 135.561 494.604Z" fill="#B8937F"/>
<path d="M421.016 73.1429C422.005 68.9915 432.284 67.0147 438.017 74.1313C444.936 82.6317 427.935 94.295 427.144 89.5506C425.168 76.7012 419.83 77.2942 421.016 73.1429ZM104.13 73.1429C105.316 77.2942 99.9784 76.7012 98.0015 89.5506C97.2108 94.295 80.21 82.6317 87.1289 74.1313C92.6641 67.0147 102.944 68.9915 104.13 73.1429ZM335.815 169.415C323.368 169.415 313.279 159.325 313.279 146.879C313.279 134.433 323.368 124.343 335.815 124.343C348.261 124.343 358.351 134.433 358.351 146.879C358.351 159.325 348.261 169.415 335.815 169.415ZM329.884 144.309C333.815 144.309 337.001 141.123 337.001 137.192C337.001 133.262 333.815 130.076 329.884 130.076C325.954 130.076 322.768 133.262 322.768 137.192C322.768 141.123 325.954 144.309 329.884 144.309ZM242.31 201.242C244.683 192.148 252.985 189.183 259.707 188.985C276.905 188.59 283.429 197.881 284.022 205.195C285.208 217.649 236.973 220.615 242.31 201.242ZM189.331 169.415C176.885 169.415 166.795 159.325 166.795 146.879C166.795 134.433 176.885 124.343 189.331 124.343C201.777 124.343 211.867 134.433 211.867 146.879C211.867 159.325 201.777 169.415 189.331 169.415ZM195.262 144.309C199.192 144.309 202.378 141.123 202.378 137.192C202.378 133.262 199.192 130.076 195.262 130.076C191.331 130.076 188.145 133.262 188.145 137.192C188.145 141.123 191.331 144.309 195.262 144.309Z" fill="black"/>
</svg>
