<?xml version="1.0" encoding="UTF-8" standalone="no"?>
<svg
   width="512px"
   height="512px"
   viewBox="-16.5 0 289 289"
   version="1.1"
   preserveAspectRatio="xMidYMid"
   id="svg55"
   sodipodi:docname="Netlify.svg"
   inkscape:version="1.1.2 (0a00cf5339, 2022-02-04, custom)"
   xmlns:inkscape="http://www.inkscape.org/namespaces/inkscape"
   xmlns:sodipodi="http://sodipodi.sourceforge.net/DTD/sodipodi-0.dtd"
   xmlns="http://www.w3.org/2000/svg"
   xmlns:svg="http://www.w3.org/2000/svg">
  <defs
     id="defs59">
    <inkscape:path-effect
       effect="fillet_chamfer"
       id="path-effect2185"
       is_visible="true"
       lpeversion="1"
       satellites_param="F,0,0,1,0,0,0,1 @ F,0,0,1,0,0.17335019,0,1 @ F,0,0,1,0,0,0,1"
       unit="px"
       method="auto"
       mode="F"
       radius="0"
       chamfer_steps="1"
       flexible="false"
       use_knot_distance="true"
       apply_no_radius="true"
       apply_with_radius="true"
       only_selected="false"
       hide_knots="false" />
    <inkscape:path-effect
       effect="envelope"
       id="path-effect1555"
       is_visible="true"
       lpeversion="1"
       yy="true"
       xx="true"
       bendpath1="M -2.8042551,128.25674 H 265.11619"
       bendpath2="M 265.11619,128.25674 V 160.7828"
       bendpath3="M -2.8042551,160.7828 H 265.11619"
       bendpath4="M -2.8042551,128.25674 V 160.7828" />
    <inkscape:path-effect
       effect="lattice2"
       gridpoint0="-2.8042551,128.25674"
       gridpoint1="265.11619,128.25674"
       gridpoint2="-2.8042551,160.7828"
       gridpoint3="265.11619,160.7828"
       gridpoint4="64.175856,128.25674"
       gridpoint5="198.13608,128.25674"
       gridpoint6="64.175856,160.7828"
       gridpoint7="198.13608,160.7828"
       gridpoint8x9="131.15597,128.25674"
       gridpoint10x11="131.15597,160.7828"
       gridpoint12="-2.8042551,136.38825"
       gridpoint13="265.11619,136.38825"
       gridpoint14="-2.8042551,152.65129"
       gridpoint15="265.11619,152.65129"
       gridpoint16="64.175856,136.38825"
       gridpoint17="198.13608,136.38825"
       gridpoint18="64.175856,152.65129"
       gridpoint19="198.13608,152.65129"
       gridpoint20x21="131.15597,136.38825"
       gridpoint22x23="131.15597,152.65129"
       gridpoint24x26="-2.8042551,144.51977"
       gridpoint25x27="265.11619,144.51977"
       gridpoint28x30="64.175856,144.51977"
       gridpoint29x31="198.13608,144.51977"
       gridpoint32x33x34x35="131.15597,144.51977"
       id="path-effect888"
       is_visible="true"
       lpeversion="1"
       horizontal_mirror="false"
       vertical_mirror="false"
       perimetral="false"
       live_update="true" />
    <inkscape:path-effect
       effect="envelope"
       id="path-effect7850"
       is_visible="true"
       lpeversion="1"
       yy="true"
       xx="true"
       bendpath1="M 6.0781248,56.445312 H 175.41406"
       bendpath2="M 175.41406,56.445312 V 266.17023"
       bendpath3="M 6.0781248,266.17023 H 175.41406"
       bendpath4="M 6.0781248,56.445312 V 266.17023" />
    <linearGradient
       id="linearGradient4052"
       inkscape:swatch="gradient">
      <stop
         style="stop-color:#0044cc;stop-opacity:1;"
         offset="0"
         id="stop4048" />
      <stop
         style="stop-color:#0044cc;stop-opacity:0;"
         offset="1"
         id="stop4050" />
    </linearGradient>
    <inkscape:path-effect
       effect="fillet_chamfer"
       id="path-effect2949"
       is_visible="true"
       lpeversion="1"
       satellites_param="F,0,0,1,0,0,0,1 @ F,0,0,1,0,0,0,1 @ F,0,0,1,0,15.145867,0,1 @ F,0,0,1,0,0,0,1 @ F,0,0,1,0,15.145869,0,1 @ F,0,0,1,0,0,0,1 @ F,0,0,1,0,15.145871,0,1 @ F,0,0,1,0,0,0,1 @ F,0,0,1,0,0,0,1 @ F,0,0,1,0,15.145871,0,1 @ F,0,0,1,0,0,0,1 @ F,0,0,1,0,0,0,1"
       unit="px"
       method="auto"
       mode="F"
       radius="0"
       chamfer_steps="1"
       flexible="false"
       use_knot_distance="true"
       apply_no_radius="true"
       apply_with_radius="true"
       only_selected="false"
       hide_knots="false" />
    <inkscape:path-effect
       effect="fillet_chamfer"
       id="path-effect2354"
       is_visible="true"
       lpeversion="1"
       satellites_param="F,0,0,1,0,0,0,1 @ F,0,0,1,0,15.145867,0,1 @ F,0,0,1,0,0,0,1 @ F,0,0,1,0,0,0,1 @ F,0,0,1,0,15.145868,0,1 @ F,0,0,1,0,0,0,1 @ F,0,0,1,0,0,0,1 @ F,0,0,1,0,20.194487,0,1 @ F,0,0,1,0,0,0,1 @ F,0,0,1,0,15.14586,0,1 @ F,0,0,1,0,0,0,1 @ F,0,0,1,0,0,0,1 @ F,0,0,1,0,0,0,1 @ F,0,0,1,0,33.867185,0,1 @ F,0,0,1,0,0,0,1 @ F,0,0,1,0,0,0,1 @ F,0,0,1,0,33.867188,0,1 @ F,0,0,1,0,0,0,1"
       unit="px"
       method="auto"
       mode="F"
       radius="0"
       chamfer_steps="1"
       flexible="false"
       use_knot_distance="true"
       apply_no_radius="true"
       apply_with_radius="true"
       only_selected="false"
       hide_knots="false" />
    <inkscape:path-effect
       effect="fillet_chamfer"
       id="path-effect2949-3"
       is_visible="true"
       lpeversion="1"
       satellites_param="F,0,0,1,0,0,0,1 @ F,0,0,1,0,0,0,1 @ F,0,0,1,0,15.145867,0,1 @ F,0,0,1,0,0,0,1 @ F,0,0,1,0,15.145869,0,1 @ F,0,0,1,0,0,0,1 @ F,0,0,1,0,15.145871,0,1 @ F,0,0,1,0,0,0,1 @ F,0,0,1,0,0,0,1 @ F,0,0,1,0,15.145871,0,1 @ F,0,0,1,0,0,0,1 @ F,0,0,1,0,0,0,1"
       unit="px"
       method="auto"
       mode="F"
       radius="0"
       chamfer_steps="1"
       flexible="false"
       use_knot_distance="true"
       apply_no_radius="true"
       apply_with_radius="true"
       only_selected="false"
       hide_knots="false" />
    <inkscape:path-effect
       effect="fillet_chamfer"
       id="path-effect2949-36"
       is_visible="true"
       lpeversion="1"
       satellites_param="F,0,0,1,0,0,0,1 @ F,0,0,1,0,0,0,1 @ F,0,0,1,0,15.145867,0,1 @ F,0,0,1,0,0,0,1 @ F,0,0,1,0,15.145869,0,1 @ F,0,0,1,0,0,0,1 @ F,0,0,1,0,15.145871,0,1 @ F,0,0,1,0,0,0,1 @ F,0,0,1,0,0,0,1 @ F,0,0,1,0,15.145871,0,1 @ F,0,0,1,0,0,0,1 @ F,0,0,1,0,0,0,1"
       unit="px"
       method="auto"
       mode="F"
       radius="0"
       chamfer_steps="1"
       flexible="false"
       use_knot_distance="true"
       apply_no_radius="true"
       apply_with_radius="true"
       only_selected="false"
       hide_knots="false" />
    <inkscape:path-effect
       effect="fillet_chamfer"
       id="path-effect2949-3-7"
       is_visible="true"
       lpeversion="1"
       satellites_param="F,0,0,1,0,0,0,1 @ F,0,0,1,0,0,0,1 @ F,0,0,1,0,15.145867,0,1 @ F,0,0,1,0,0,0,1 @ F,0,0,1,0,15.145869,0,1 @ F,0,0,1,0,0,0,1 @ F,0,0,1,0,15.145871,0,1 @ F,0,0,1,0,0,0,1 @ F,0,0,1,0,0,0,1 @ F,0,0,1,0,15.145871,0,1 @ F,0,0,1,0,0,0,1 @ F,0,0,1,0,0,0,1"
       unit="px"
       method="auto"
       mode="F"
       radius="0"
       chamfer_steps="1"
       flexible="false"
       use_knot_distance="true"
       apply_no_radius="true"
       apply_with_radius="true"
       only_selected="false"
       hide_knots="false" />
    <inkscape:path-effect
       effect="lattice2"
       gridpoint0="-2.8042551,128.25674"
       gridpoint1="265.11619,128.25674"
       gridpoint2="-2.8042551,160.7828"
       gridpoint3="265.11619,160.7828"
       gridpoint4="64.175856,128.25674"
       gridpoint5="198.13608,128.25674"
       gridpoint6="64.175856,160.7828"
       gridpoint7="198.13608,160.7828"
       gridpoint8x9="131.15597,128.25674"
       gridpoint10x11="131.15597,160.7828"
       gridpoint12="-2.8042551,136.38825"
       gridpoint13="265.11619,136.38825"
       gridpoint14="-2.8042551,152.65129"
       gridpoint15="265.11619,152.65129"
       gridpoint16="64.175856,136.38825"
       gridpoint17="198.13608,136.38825"
       gridpoint18="64.175856,152.65129"
       gridpoint19="198.13608,152.65129"
       gridpoint20x21="131.15597,136.38825"
       gridpoint22x23="131.15597,152.65129"
       gridpoint24x26="-2.8042551,144.51977"
       gridpoint25x27="265.11619,144.51977"
       gridpoint28x30="64.175856,144.51977"
       gridpoint29x31="198.13608,144.51977"
       gridpoint32x33x34x35="131.15597,144.51977"
       id="path-effect888-5"
       is_visible="true"
       lpeversion="1"
       horizontal_mirror="false"
       vertical_mirror="false"
       perimetral="false"
       live_update="true" />
    <inkscape:path-effect
       effect="envelope"
       id="path-effect1555-3"
       is_visible="true"
       lpeversion="1"
       yy="true"
       xx="true"
       bendpath1="M -2.8042551,128.25674 H 265.11619"
       bendpath2="M 265.11619,128.25674 V 160.7828"
       bendpath3="M -2.8042551,160.7828 H 265.11619"
       bendpath4="M -2.8042551,128.25674 V 160.7828" />
    <inkscape:path-effect
       effect="fillet_chamfer"
       id="path-effect2185-5"
       is_visible="true"
       lpeversion="1"
       satellites_param="F,0,0,1,0,0,0,1 @ F,0,0,1,0,0.17335019,0,1 @ F,0,0,1,0,0,0,1"
       unit="px"
       method="auto"
       mode="F"
       radius="0"
       chamfer_steps="1"
       flexible="false"
       use_knot_distance="true"
       apply_no_radius="true"
       apply_with_radius="true"
       only_selected="false"
       hide_knots="false" />
    <radialGradient
       id="a"
       cy="0.82847677"
       r="38.364219"
       gradientTransform="matrix(6.9927572,0,0,7.0004499,-10.794055,4.2536521)"
       cx="19.992488"
       fx="19.992488"
       fy="0.82847677"
       gradientUnits="userSpaceOnUse">
      <stop
         offset="0"
         stop-color="#20c6b7"
         id="stop2" />
      <stop
         offset="1"
         stop-color="#4d9abf"
         id="stop4" />
    </radialGradient>
  </defs>
  <sodipodi:namedview
     id="namedview57"
     pagecolor="#ffffff"
     bordercolor="#999999"
     borderopacity="1"
     inkscape:pageshadow="0"
     inkscape:pageopacity="0"
     inkscape:pagecheckerboard="0"
     showgrid="true"
     inkscape:zoom="0.57491107"
     inkscape:cx="232.20983"
     inkscape:cy="305.2646"
     inkscape:window-width="1366"
     inkscape:window-height="698"
     inkscape:window-x="0"
     inkscape:window-y="0"
     inkscape:window-maximized="1"
     inkscape:current-layer="svg55" />
  <g
     id="g53"
     transform="translate(-132.67001,-34.449225)" />
  <path
     fill="url(#a)"
     fill-rule="nonzero"
     d="m 189.23182,103.15057 -0.0978,-0.0372 c -0.0558,-0.0247 -0.1116,-0.0372 -0.16091,-0.0868 a 0.76962625,0.76962625 0 0 1 -0.19582,-0.65076 l 5.40837,-33.06599 25.36271,25.369724 -26.37721,11.222506 a 0.58071802,0.58071802 0 0 1 -0.23092,0.0372 h -0.10532 c -0.0347,-0.0247 -0.0694,-0.0495 -0.14001,-0.12398 a 12.00617,12.00617 0 0 0 -3.46333,-2.66574 z m 36.78816,-2.01498 27.11883,27.11883 c 5.63226,5.63926 8.45187,8.4519 9.48038,11.71239 0.15401,0.48217 0.2799,0.96559 0.37781,1.46227 l -64.80953,-27.44767 a 5.0935267,5.0935267 0 0 0 -0.1053,-0.0372 c -0.25883,-0.0993 -0.55977,-0.22438 -0.55977,-0.48963 0,-0.26525 0.30788,-0.39168 0.5667,-0.49704 l 0.0842,-0.0372 z m 35.87157,48.99727 c -1.39932,2.63065 -4.12798,5.35937 -8.74576,9.9841 l -30.57515,30.56818 -39.54479,-8.23498 -0.20986,-0.0372 c -0.34981,-0.0619 -0.72067,-0.12398 -0.72067,-0.43384 a 11.936204,11.936204 0 0 0 -4.58279,-8.34689 c -0.16092,-0.16112 -0.11891,-0.41278 -0.0694,-0.64333 0,-0.0372 0,-0.0742 0.0142,-0.0993 l 7.4374,-45.65981 0.0284,-0.15361 c 0.0422,-0.34956 0.10531,-0.75613 0.41982,-0.75613 a 12.104122,12.104122 0 0 0 8.11607,-4.65272 c 0.0631,-0.0744 0.10532,-0.14752 0.18892,-0.18831 0.22386,-0.0993 0.48974,0 0.72066,0.0993 l 67.51723,28.56016 z m -46.35249,47.58381 -50.2776,50.27758 8.60583,-52.89425 0.0142,-0.0744 c 0.006,-0.0744 0.0211,-0.14002 0.0422,-0.20329 0.0694,-0.16741 0.25186,-0.238 0.42675,-0.30739 l 0.0842,-0.0372 a 12.943715,12.943715 0 0 0 4.86263,-3.61734 c 0.16802,-0.19581 0.37088,-0.38427 0.62969,-0.4202 a 0.62969423,0.62969423 0 0 1 0.20292,0 l 35.40282,7.27645 z m -60.91943,60.9195 -5.66725,5.66716 -62.654563,-90.55 a 2.9665595,2.9665595 0 0 0 -0.0694,-0.0993 c -0.09801,-0.13271 -0.202916,-0.26649 -0.182016,-0.42021 0,-0.1116 0.0769,-0.20948 0.154014,-0.29376 l 0.0694,-0.0868 c 0.188915,-0.28014 0.349788,-0.56027 0.524702,-0.86024 l 0.140013,-0.24543 0.02111,-0.0247 c 0.09801,-0.16862 0.188916,-0.32848 0.356849,-0.42019 0.146912,-0.0742 0.349808,-0.0372 0.510701,-0.006 l 69.41328,14.31502 a 1.1474428,1.1474428 0 0 1 0.53176,0.23056 c 0.0905,0.0869 0.1116,0.18831 0.13291,0.30121 a 12.293031,12.293031 0 0 0 7.19252,8.22097 c 0.19602,0.0993 0.11161,0.31485 0.0211,0.54541 a 1.6651914,1.6651914 0 0 0 -0.10531,0.31484 c -0.87464,5.31735 -8.37495,51.06121 -10.38997,63.41023 z m -11.83825,11.83125 c -4.17699,4.13497 -6.63977,6.32485 -9.42441,7.20643 a 13.993204,13.993204 0 0 1 -8.43792,0 c -3.26041,-1.03502 -6.08004,-3.84814 -11.7123,-9.4873 L 50.286296,205.26606 66.721308,179.77748 c 0.0769,-0.12641 0.154014,-0.238 0.279883,-0.32847 0.174915,-0.12643 0.426775,-0.0744 0.636753,0 a 17.029731,17.029731 0 0 0 11.460442,-0.58011 c 0.188915,-0.0744 0.377811,-0.12398 0.524702,0.0122 a 1.3293545,1.3293545 0 0 1 0.195815,0.22436 l 62.962437,91.36859 z M 44.22024,199.20002 29.786245,184.766 58.290395,172.6059 a 0.5877146,0.5877146 0 0 1 0.23094,-0.0495 c 0.237859,0 0.37781,0.23801 0.503741,0.45492 a 20.360115,20.360115 0 0 0 0.909575,1.28739 l 0.09051,0.1116 c 0.08421,0.12398 0.0284,0.238 -0.05581,0.34956 L 44.226994,199.19905 Z M 23.398343,178.37804 5.1372195,160.11696 c -3.1064897,-3.10654 -5.35939638,-5.35941 -6.9266408,-7.2974 l 55.5250363,11.5164 a 5.8771462,5.8771462 0 0 0 0.209855,0.0372 c 0.342857,0.0621 0.720667,0.12399 0.720667,0.44128 0,0.34955 -0.412767,0.51068 -0.762688,0.64331 l -0.160892,0.0744 z M -4.9798655,143.43006 a 13.993204,13.993204 0 0 1 0.6296836,-3.46325 c 1.0355094,-3.26049 3.8481424,-6.07313 9.4874014,-11.71239 L 28.505866,104.8858 a 15221.284,15221.284 0 0 0 32.366281,46.7863 c 0.188916,0.25164 0.398752,0.53177 0.182016,0.74125 -1.021482,1.12675 -2.042987,2.35785 -2.763646,3.69419 a 1.1194565,1.1194565 0 0 1 -0.349798,0.43384 c -0.09048,0.0619 -0.188915,0.0372 -0.293894,0.0122 h -0.01359 L -4.9793684,143.42092 Z M 34.760829,98.630842 66.168582,67.209104 c 2.959564,1.294325 13.713327,5.835118 23.319676,9.893234 7.27648,3.078513 13.909252,5.877142 15.994232,6.786696 0.20986,0.08685 0.39876,0.167407 0.48974,0.378075 0.0558,0.126417 0.0284,0.286336 0,0.4202 a 14.014195,14.014195 0 0 0 3.65922,12.789795 c 0.20986,0.209465 0,0.510677 -0.18201,0.769737 l -0.0978,0.147522 -31.904521,49.416987 c -0.08421,0.14 -0.160912,0.25906 -0.300824,0.34954 -0.168015,0.0992 -0.405833,0.0619 -0.601668,0.006 a 15.910274,15.910274 0 0 0 -3.799152,-0.51813 c -1.147455,0 -2.392837,0.2095 -3.65222,0.44129 h -0.0061 c -0.140012,0.0247 -0.265882,0.0495 -0.37781,-0.0372 a 1.4692866,1.4692866 0 0 1 -0.314847,-0.35697 L 34.753863,98.629726 Z M 72.528485,60.863162 113.20675,20.18492 c 5.63226,-5.632323 8.45189,-8.451894 11.7123,-9.480337 a 13.993204,13.993204 0 0 1 8.43792,0 c 3.2604,1.028808 6.08003,3.848014 11.71229,9.480337 l 8.81573,8.815704 -28.93096,44.806282 a 1.0844733,1.0844733 0 0 1 -0.28682,0.335909 c -0.17491,0.123982 -0.41983,0.07427 -0.62969,0 a 14.671876,14.671876 0 0 0 -13.43349,2.588773 c -0.18891,0.195814 -0.46878,0.08685 -0.70666,-0.02476 C 106.11923,75.062598 76.733491,62.643677 72.528525,60.85949 Z m 87.499535,-25.719512 26.71301,26.713014 -6.43687,39.866716 v 0.0993 a 0.94454135,0.94454135 0 0 1 -0.0558,0.26527 c -0.0694,0.14002 -0.20986,0.16863 -0.34979,0.20948 a 12.803783,12.803783 0 0 0 -3.83415,1.91001 1.0774769,1.0774769 0 0 0 -0.14002,0.12398 c -0.0769,0.0868 -0.15401,0.16111 -0.2799,0.17471 a 0.79761276,0.79761276 0 0 1 -0.30082,-0.0495 l -40.70625,-17.295628 -0.077,-0.03713 c -0.25894,-0.09922 -0.56671,-0.230554 -0.56671,-0.497045 a 15.378533,15.378533 0 0 0 -2.16895,-6.401846 c -0.19581,-0.322272 -0.41277,-0.65818 -0.24495,-0.986662 z m -27.51066,60.212724 38.15949,16.162196 c 0.20984,0.0992 0.44078,0.1885 0.53175,0.40533 a 0.74163987,0.74163987 0 0 1 0,0.39912 c -0.11161,0.56028 -0.20984,1.19616 -0.20984,1.8401 v 1.07095 c 0,0.26525 -0.27283,0.37806 -0.52471,0.48217 l -0.0769,0.0247 c -6.04506,2.58171 -84.868792,36.19347 -84.987742,36.19347 -0.118909,0 -0.244921,0 -0.36381,-0.12398 -0.209836,-0.20949 0,-0.50325 0.188916,-0.76976 a 5.317418,5.317418 0 0 0 0.09801,-0.14002 l 31.358776,-48.55636 0.0558,-0.0868 c 0.182,-0.29378 0.39183,-0.62225 0.72761,-0.62225 l 0.31485,0.0495 c 0.71359,0.0993 1.34335,0.18831 1.98004,0.18831 4.75769,0 9.16553,-2.315949 11.82425,-6.27602 a 1.1194565,1.1194565 0 0 1 0.23787,-0.280144 c 0.18891,-0.140013 0.46878,-0.07427 0.6857,0.02476 z M 88.816583,159.62026 174.73486,122.97894 c 0,0 0.12601,0 0.24492,0.12399 0.4688,0.46853 0.86757,0.78338 1.2524,1.07715 l 0.18892,0.12398 c 0.17491,0.0993 0.34981,0.20946 0.36381,0.39168 0,0.0744 0,0.11161 -0.0142,0.17472 l -7.36043,45.21209 -0.0284,0.18222 c -0.0495,0.34954 -0.098,0.74868 -0.42678,0.74868 a 12.097126,12.097126 0 0 0 -9.60635,5.92608 l -0.0347,0.0621 c -0.098,0.16112 -0.18891,0.31482 -0.3498,0.39912 -0.14691,0.0744 -0.3358,0.0372 -0.48975,0.006 L 89.956793,163.27363 c -0.0694,-0.0122 -1.063527,-3.63121 -1.140494,-3.63816 z"
     id="path9"
     style="fill:url(#a);stroke-width:6.9966" />
</svg>
