<?xml version="1.0" encoding="UTF-8" standalone="no"?>
<svg
   width="320"
   height="323"
   viewBox="0 0 320 323"
   fill="none"
   version="1.1"
   id="svg73"
   sodipodi:docname="hbbiiii.svg"
   inkscape:export-filename="../dsdsjfn.svg"
   inkscape:export-xdpi="300"
   inkscape:export-ydpi="300"
   xmlns:inkscape="http://www.inkscape.org/namespaces/inkscape"
   xmlns:sodipodi="http://sodipodi.sourceforge.net/DTD/sodipodi-0.dtd"
   xmlns="http://www.w3.org/2000/svg"
   xmlns:svg="http://www.w3.org/2000/svg">
  <defs
     id="defs77" />
  <sodipodi:namedview
     id="namedview75"
     pagecolor="#ffffff"
     bordercolor="#000000"
     borderopacity="0.25"
     inkscape:showpageshadow="2"
     inkscape:pageopacity="0.0"
     inkscape:pagecheckerboard="0"
     inkscape:deskcolor="#d1d1d1"
     showgrid="false" />
  <path
     d="m 144.794,19.2706 c 9.132,-5.1355 20.28,-5.1355 29.412,0 l 103.801,58.378 c 9.447,5.3132 15.294,15.3093 15.294,26.1484 v 115.406 c 0,10.839 -5.847,20.835 -15.294,26.148 l -103.801,58.378 c -9.132,5.136 -20.28,5.136 -29.412,0 L 40.9932,245.351 C 31.5458,240.038 25.6991,230.042 25.6991,219.203 V 103.797 c 0,-10.8391 5.8467,-20.8352 15.2941,-26.1484 z"
     stroke="#34d399"
     stroke-width="29"
     id="path65" />
  <path
     d="m 96,47.5 c 0,-8.0081 6.492,-14.5 14.5,-14.5 8.008,0 14.5,6.4919 14.5,14.5 v 152 c 0,8.008 -6.492,14.5 -14.5,14.5 -8.008,0 -14.5,-6.492 -14.5,-14.5 z"
     fill="#34d399"
     id="path67" />
  <path
     d="M 110.5,176 C 102.492,176 96,169.508 96,161.5 96,153.492 102.492,147 110.5,147 h 99 c 8.008,0 14.5,6.492 14.5,14.5 0,8.008 -6.492,14.5 -14.5,14.5 z"
     fill="#34d399"
     id="path69" />
  <path
     d="m 195,124.5 c 0,-8.008 6.492,-14.5 14.5,-14.5 8.008,0 14.5,6.492 14.5,14.5 v 150 c 0,8.008 -6.492,14.5 -14.5,14.5 -8.008,0 -14.5,-6.492 -14.5,-14.5 z"
     fill="#34d399"
     id="path71" />
</svg>
