<?xml version="1.0" standalone="no"?>
<!DOCTYPE svg PUBLIC "-//W3C//DTD SVG 20010904//EN"
 "http://www.w3.org/TR/2001/REC-SVG-20010904/DTD/svg10.dtd">
<svg version="1.0" xmlns="http://www.w3.org/2000/svg"
 width="646.000000pt" height="646.000000pt" viewBox="0 0 646.000000 646.000000"
 preserveAspectRatio="xMidYMid meet">
<metadata>
Created by potrace 1.14, written by Peter Selinger 2001-2017
</metadata>
<g transform="translate(0.000000,646.000000) scale(0.100000,-0.100000)"
fill="#000000" stroke="none">
<path d="M3065 6429 c-68 -13 -170 -47 -230 -77 -117 -58 -2155 -1209 -2211
-1248 -127 -90 -247 -244 -308 -398 -64 -160 -61 -86 -61 -1471 0 -1387 -3
-1322 62 -1483 60 -152 180 -307 307 -396 56 -39 2094 -1190 2211 -1248 238
-119 536 -117 778 4 127 63 2146 1203 2203 1244 127 90 247 244 307 396 65
161 62 96 62 1478 0 1382 3 1317 -62 1478 -60 152 -180 306 -307 396 -57 41
-2076 1181 -2203 1244 -71 35 -168 67 -247 81 -71 13 -231 12 -301 0z m246
-583 c71 -22 2158 -1201 2202 -1244 21 -20 50 -62 65 -92 l27 -55 0 -1225 0
-1225 -27 -55 c-15 -30 -44 -72 -65 -92 -23 -23 -227 -143 -518 -307 l-480
-270 -5 1382 -5 1382 -23 47 c-32 65 -111 134 -175 153 -112 33 -204 10 -288
-74 -84 -84 -89 -108 -89 -408 l0 -243 -700 0 -700 0 2 1001 3 1001 275 155
c151 86 293 162 315 169 53 17 132 17 186 0z m-1333 -3498 c32 -65 111 -134
175 -153 112 -33 204 -10 288 74 84 85 89 107 89 418 l0 253 700 0 700 0 0
-994 0 -994 -293 -165 c-161 -91 -311 -170 -333 -176 -53 -15 -122 -14 -175 3
-71 22 -2158 1201 -2202 1244 -21 20 -50 62 -65 92 l-27 55 0 1225 0 1225 27
55 c15 30 44 72 65 92 23 22 232 146 528 313 l490 275 5 -1397 5 -1398 23 -47z"/>
</g>
</svg>
