<?xml version="1.0" encoding="UTF-8" standalone="no"?>
<svg
   width="512px"
   height="512px"
   viewBox="-16.5 0 289 289"
   version="1.1"
   preserveAspectRatio="xMidYMid"
   id="svg55"
   sodipodi:docname="habiLogo.svg"
   inkscape:version="1.1.2 (0a00cf5339, 2022-02-04, custom)"
   xmlns:inkscape="http://www.inkscape.org/namespaces/inkscape"
   xmlns:sodipodi="http://sodipodi.sourceforge.net/DTD/sodipodi-0.dtd"
   xmlns="http://www.w3.org/2000/svg"
   xmlns:svg="http://www.w3.org/2000/svg">
  <defs
     id="defs59">
    <inkscape:path-effect
       effect="fillet_chamfer"
       id="path-effect2185"
       is_visible="true"
       lpeversion="1"
       satellites_param="F,0,0,1,0,0,0,1 @ F,0,0,1,0,0.17335019,0,1 @ F,0,0,1,0,0,0,1"
       unit="px"
       method="auto"
       mode="F"
       radius="0"
       chamfer_steps="1"
       flexible="false"
       use_knot_distance="true"
       apply_no_radius="true"
       apply_with_radius="true"
       only_selected="false"
       hide_knots="false" />
    <inkscape:path-effect
       effect="envelope"
       id="path-effect1555"
       is_visible="true"
       lpeversion="1"
       yy="true"
       xx="true"
       bendpath1="M -2.8042551,128.25674 H 265.11619"
       bendpath2="M 265.11619,128.25674 V 160.7828"
       bendpath3="M -2.8042551,160.7828 H 265.11619"
       bendpath4="M -2.8042551,128.25674 V 160.7828" />
    <inkscape:path-effect
       effect="lattice2"
       gridpoint0="-2.8042551,128.25674"
       gridpoint1="265.11619,128.25674"
       gridpoint2="-2.8042551,160.7828"
       gridpoint3="265.11619,160.7828"
       gridpoint4="64.175856,128.25674"
       gridpoint5="198.13608,128.25674"
       gridpoint6="64.175856,160.7828"
       gridpoint7="198.13608,160.7828"
       gridpoint8x9="131.15597,128.25674"
       gridpoint10x11="131.15597,160.7828"
       gridpoint12="-2.8042551,136.38825"
       gridpoint13="265.11619,136.38825"
       gridpoint14="-2.8042551,152.65129"
       gridpoint15="265.11619,152.65129"
       gridpoint16="64.175856,136.38825"
       gridpoint17="198.13608,136.38825"
       gridpoint18="64.175856,152.65129"
       gridpoint19="198.13608,152.65129"
       gridpoint20x21="131.15597,136.38825"
       gridpoint22x23="131.15597,152.65129"
       gridpoint24x26="-2.8042551,144.51977"
       gridpoint25x27="265.11619,144.51977"
       gridpoint28x30="64.175856,144.51977"
       gridpoint29x31="198.13608,144.51977"
       gridpoint32x33x34x35="131.15597,144.51977"
       id="path-effect888"
       is_visible="true"
       lpeversion="1"
       horizontal_mirror="false"
       vertical_mirror="false"
       perimetral="false"
       live_update="true" />
    <inkscape:path-effect
       effect="envelope"
       id="path-effect7850"
       is_visible="true"
       lpeversion="1"
       yy="true"
       xx="true"
       bendpath1="M 6.0781248,56.445312 H 175.41406"
       bendpath2="M 175.41406,56.445312 V 266.17023"
       bendpath3="M 6.0781248,266.17023 H 175.41406"
       bendpath4="M 6.0781248,56.445312 V 266.17023" />
    <linearGradient
       id="linearGradient4052"
       inkscape:swatch="gradient">
      <stop
         style="stop-color:#0044cc;stop-opacity:1;"
         offset="0"
         id="stop4048" />
      <stop
         style="stop-color:#0044cc;stop-opacity:0;"
         offset="1"
         id="stop4050" />
    </linearGradient>
    <inkscape:path-effect
       effect="fillet_chamfer"
       id="path-effect2949"
       is_visible="true"
       lpeversion="1"
       satellites_param="F,0,0,1,0,0,0,1 @ F,0,0,1,0,0,0,1 @ F,0,0,1,0,15.145867,0,1 @ F,0,0,1,0,0,0,1 @ F,0,0,1,0,15.145869,0,1 @ F,0,0,1,0,0,0,1 @ F,0,0,1,0,15.145871,0,1 @ F,0,0,1,0,0,0,1 @ F,0,0,1,0,0,0,1 @ F,0,0,1,0,15.145871,0,1 @ F,0,0,1,0,0,0,1 @ F,0,0,1,0,0,0,1"
       unit="px"
       method="auto"
       mode="F"
       radius="0"
       chamfer_steps="1"
       flexible="false"
       use_knot_distance="true"
       apply_no_radius="true"
       apply_with_radius="true"
       only_selected="false"
       hide_knots="false" />
    <inkscape:path-effect
       effect="fillet_chamfer"
       id="path-effect2354"
       is_visible="true"
       lpeversion="1"
       satellites_param="F,0,0,1,0,0,0,1 @ F,0,0,1,0,15.145867,0,1 @ F,0,0,1,0,0,0,1 @ F,0,0,1,0,0,0,1 @ F,0,0,1,0,15.145868,0,1 @ F,0,0,1,0,0,0,1 @ F,0,0,1,0,0,0,1 @ F,0,0,1,0,20.194487,0,1 @ F,0,0,1,0,0,0,1 @ F,0,0,1,0,15.14586,0,1 @ F,0,0,1,0,0,0,1 @ F,0,0,1,0,0,0,1 @ F,0,0,1,0,0,0,1 @ F,0,0,1,0,33.867185,0,1 @ F,0,0,1,0,0,0,1 @ F,0,0,1,0,0,0,1 @ F,0,0,1,0,33.867188,0,1 @ F,0,0,1,0,0,0,1"
       unit="px"
       method="auto"
       mode="F"
       radius="0"
       chamfer_steps="1"
       flexible="false"
       use_knot_distance="true"
       apply_no_radius="true"
       apply_with_radius="true"
       only_selected="false"
       hide_knots="false" />
    <inkscape:path-effect
       effect="fillet_chamfer"
       id="path-effect2949-3"
       is_visible="true"
       lpeversion="1"
       satellites_param="F,0,0,1,0,0,0,1 @ F,0,0,1,0,0,0,1 @ F,0,0,1,0,15.145867,0,1 @ F,0,0,1,0,0,0,1 @ F,0,0,1,0,15.145869,0,1 @ F,0,0,1,0,0,0,1 @ F,0,0,1,0,15.145871,0,1 @ F,0,0,1,0,0,0,1 @ F,0,0,1,0,0,0,1 @ F,0,0,1,0,15.145871,0,1 @ F,0,0,1,0,0,0,1 @ F,0,0,1,0,0,0,1"
       unit="px"
       method="auto"
       mode="F"
       radius="0"
       chamfer_steps="1"
       flexible="false"
       use_knot_distance="true"
       apply_no_radius="true"
       apply_with_radius="true"
       only_selected="false"
       hide_knots="false" />
  </defs>
  <sodipodi:namedview
     id="namedview57"
     pagecolor="#ffffff"
     bordercolor="#999999"
     borderopacity="1"
     inkscape:pageshadow="0"
     inkscape:pageopacity="0"
     inkscape:pagecheckerboard="0"
     showgrid="true"
     inkscape:zoom="4.5231259"
     inkscape:cx="177.42155"
     inkscape:cy="294.59715"
     inkscape:window-width="1366"
     inkscape:window-height="698"
     inkscape:window-x="0"
     inkscape:window-y="0"
     inkscape:window-maximized="1"
     inkscape:current-layer="svg55" />
  <g
     id="g53" />
  <path
     style="fill:none;stroke:#4299e1;stroke-width:14.3036;stroke-linecap:round;stroke-linejoin:round;stroke-miterlimit:4;stroke-dasharray:none;stroke-opacity:1;paint-order:stroke markers fill"
     d="M 79.470008,181.92167 V 100.60928 A 24.214495,24.214495 122.14553 0 1 93.016884,79.051781 l 1.237198,-0.618599 16.021248,-8.010628 a 30.291734,30.291734 180 0 1 27.09376,-2e-6 l 45.5894,22.794701 1.23719,0.618593 a 24.214495,24.214495 57.854467 0 1 13.54688,21.557504 v 66.52832 a 24.214499,24.214499 122.14553 0 1 -13.54688,21.55751 l -1.23719,0.61859 -29.25145,14.43399"
     id="path1948"
     inkscape:path-effect="#path-effect2949"
     inkscape:original-d="M 79.470008,181.92167 V 100.60928 85.825218 l 14.784074,-7.392036 29.568128,-14.784068 59.13628,29.568139 14.78407,7.392027 v 14.78407 66.52832 14.78407 l -14.78407,7.39203 -29.25145,14.43399"
     sodipodi:nodetypes="cccccccccccc" />
  <path
     style="fill:none;stroke:#4299e1;stroke-width:14.3035;stroke-linecap:round;stroke-linejoin:round;stroke-miterlimit:4;stroke-dasharray:none;stroke-opacity:1"
     d="m 168.17442,115.39335 v 81.31237 a 24.214525,24.214525 122.14549 0 1 -13.54687,21.55752 l -1.2372,0.6186 -16.02126,8.01063 a 30.291734,30.291734 2.712856e-6 0 1 -27.09376,0 l -45.589386,-22.7947 -1.237198,-0.6186 A 24.214511,24.214511 57.854477 0 1 49.901872,181.92167 V 115.39335 A 24.214493,24.214493 122.14553 0 1 63.448754,93.835847 l 1.23719,-0.618594 29.28554,-14.392943"
     id="path1948-6"
     inkscape:path-effect="#path-effect2949-3"
     inkscape:original-d="m 168.17442,115.39335 v 81.31237 14.78407 l -14.78407,7.39205 -29.56814,14.78407 -59.136266,-29.56814 -14.784072,-7.39205 V 181.92167 115.39335 100.60928 L 64.685944,93.217253 93.971484,78.82431"
     sodipodi:nodetypes="cccccccccccc" />
  <path
     style="opacity:0.98;fill:#030518;fill-opacity:1;stroke:#ffffff;stroke-width:4.73745;stroke-linecap:round;stroke-linejoin:round;stroke-miterlimit:4;stroke-dasharray:none;stroke-opacity:1;paint-order:stroke markers fill"
     id="path21187"
     d="m -2.8014508,152.22526 c 2.08031998,-0.0557 2.12712198,-0.0784 4.698353,4e-5 11.5065328,0.35124 23.0104588,0.93297 34.5134898,1.38465 3.450939,0.1294 6.900584,0.29978 10.352816,0.3882 3.49476,0.0895 6.991092,0.10036 10.486708,0.14554 8.908406,0.11501 17.830366,0.27747 26.737334,-0.0353 2.365566,-0.0831 4.727416,-0.25055 7.091126,-0.37583 8.31987,-0.96091 16.995634,-2.35899 24.121434,-7.0934 0.8487,-0.5639 1.60479,-1.2561 2.40718,-1.88414 2.04852,-1.88714 4.22733,-3.64195 6.14552,-5.6614 0.51504,-0.54224 0.7831,-1.2787 1.09304,-1.95931 0.72109,-1.58349 1.01637,-3.23776 0.5576,-4.93622 -0.11264,-0.41696 -0.31995,-0.80237 -0.47992,-1.20356 -0.74934,-1.25546 -1.79297,-2.20646 -3.19778,-2.66088 -0.28762,-0.0931 -0.58106,-0.20347 -0.88333,-0.20515 -0.36634,-0.002 -0.72116,0.12948 -1.08174,0.19424 -1.9677,1.59599 -4.01684,3.09648 -5.90303,4.788 -0.68527,0.61454 -1.66872,2.5979 -2.01252,3.31592 -1.06497,2.22425 -1.80103,4.49906 -2.47146,6.86481 -0.85328,3.71539 -0.94805,7.53741 -0.65409,11.32204 0.25454,2.61795 1.55252,3.91463 3.75869,5.12015 0.4238,0.15331 0.83198,0.35992 1.27142,0.45993 3.33997,0.76015 7.86645,0.38009 11.15046,0.2539 8.05957,-0.30972 12.54655,-0.62067 21.0065,-1.11231 5.18395,-0.43741 10.37335,-0.81445 15.55185,-1.31225 12.21739,-1.17442 25.75252,-2.78795 37.90345,-4.26533 17.15762,-2.08612 34.29868,-4.31209 51.44432,-6.49378 -14.93975,1.899 26.7648,-3.40208 11.82504,-1.50308 0.8395,-0.83075 2.48798,-2.52177 2.48798,-2.52177 -13.28573,2.17793 0.95066,-0.15583 -12.33508,2.02209 -34.57499,5.32314 -69.30972,10.25343 -104.30998,11.52835 -10.20447,0.10649 -10.68248,0.21266 -19.84698,-0.009 -3.17907,-0.0768 -7.09777,-0.0149 -10.26748,-0.81751 -0.40395,-0.10224 -0.78094,-0.29101 -1.17141,-0.43651 -2.06439,-1.05092 -3.15717,-2.19632 -3.42405,-4.58422 -0.34239,-3.67527 -0.34195,-7.38512 0.56999,-10.99021 0.88405,-3.00847 1.89402,-6.05837 3.72269,-8.6512 0.34623,-0.49091 1.68107,-1.68249 1.16508,-1.3749 -1.3898,0.82846 -2.55988,1.97955 -3.83984,2.96933 0.27987,-0.12949 0.53513,-0.33975 0.83963,-0.38846 0.27101,-0.0434 0.54715,0.0599 0.81403,0.12391 1.28361,0.30838 2.24798,1.07876 2.92347,2.20438 0.84811,2.12929 0.83277,3.41144 -0.20383,5.55056 -0.30537,0.63016 -2.15352,2.44763 -1.45335,2.45881 1.09714,0.0175 2.00048,-0.78832 2.92341,-1.38181 -0.81986,0.68844 -2.08646,0.0611 -2.95873,0.68177 -7.14603,5.08484 -15.29783,7.03733 -23.793274,8.20226 -2.41116,0.17994 -4.81945,0.40369 -7.23347,0.53983 -15.968367,0.90053 -31.995528,0.51563 -47.965299,-0.0717 -6.18717,-0.31402 -13.641207,-0.63982 -19.847278,-1.1537 -7.000473,-0.57967 -7.229695,-0.76554 -13.3462768,-1.50775 -1.417148,-0.17195 -2.840999,-0.28583 -4.256062,-0.47624 -1.53242313,1.52625 -4.626344,4.54784 -4.626344,4.54784 0,0 -7e-6,3.7e-4 -7e-6,3.7e-4 z"
     inkscape:path-effect="#path-effect888;#path-effect1555"
     inkscape:original-d="m -2.8042551,152.35352 c 2.08032002,-0.0557 2.12712202,-0.0784 4.698353,4e-5 11.5065331,0.35124 23.0104591,0.93297 34.5134901,1.38465 3.450939,0.1294 6.900584,0.29978 10.352816,0.3882 3.49476,0.0895 6.991092,0.10036 10.486708,0.14554 8.908406,0.11501 17.830366,0.27747 26.737334,-0.0353 2.365566,-0.0831 4.727416,-0.25055 7.091126,-0.37583 8.31987,-0.96091 16.995638,-2.35899 24.121438,-7.0934 0.8487,-0.5639 1.60479,-1.2561 2.40718,-1.88414 2.04852,-1.88714 4.22733,-3.64195 6.14552,-5.6614 0.51504,-0.54224 0.7831,-1.2787 1.09304,-1.95931 0.72109,-1.58349 1.01637,-3.23776 0.5576,-4.93622 -0.11264,-0.41696 -0.31995,-0.80237 -0.47992,-1.20356 -0.74934,-1.25546 -1.79297,-2.20646 -3.19778,-2.66088 -0.28762,-0.0931 -0.58106,-0.20347 -0.88333,-0.20515 -0.36634,-0.002 -0.72116,0.12948 -1.08174,0.19424 -1.9677,1.59599 -4.01684,3.09648 -5.90303,4.788 -0.68527,0.61454 -1.66872,2.5979 -2.01252,3.31592 -1.06497,2.22425 -1.80103,4.49906 -2.47146,6.86481 -0.85328,3.71539 -0.94805,7.53741 -0.65409,11.32204 0.25454,2.61795 1.55252,3.91463 3.75869,5.12015 0.4238,0.15331 0.83198,0.35992 1.27142,0.45993 3.33997,0.76015 7.86645,0.38009 11.15046,0.2539 8.05957,-0.30972 12.54655,-0.62067 21.0065,-1.11231 5.18395,-0.43741 10.37335,-0.81445 15.55185,-1.31225 12.21739,-1.17442 25.75252,-2.78795 37.90345,-4.26533 17.15762,-2.08612 34.29868,-4.31209 51.44432,-6.49378 3.94169,-0.50103 7.88336,-1.00206 11.82504,-1.50308 l 2.48798,-2.52177 v 0 c -4.1117,0.67403 -8.2234,1.348 -12.33508,2.02209 -34.57499,5.32314 -69.30972,10.25343 -104.30998,11.52835 -10.20447,0.10649 -10.68248,0.21266 -19.84698,-0.009 -3.17907,-0.0768 -7.09777,-0.0149 -10.26748,-0.81751 -0.40395,-0.10224 -0.78094,-0.29101 -1.17141,-0.43651 -2.06439,-1.05092 -3.15717,-2.19632 -3.42405,-4.58422 -0.34239,-3.67527 -0.34195,-7.38512 0.56999,-10.99021 0.88405,-3.00847 1.89402,-6.05837 3.72269,-8.6512 0.34623,-0.49091 1.68107,-1.68249 1.16508,-1.3749 -1.3898,0.82846 -2.55988,1.97955 -3.83984,2.96933 0.27987,-0.12949 0.53513,-0.33975 0.83963,-0.38846 0.27101,-0.0434 0.54715,0.0599 0.81403,0.12391 1.28361,0.30838 2.24798,1.07876 2.92347,2.20438 0.84811,2.12929 0.83277,3.41144 -0.20383,5.55056 -0.30537,0.63016 -2.15352,2.44763 -1.45335,2.45881 1.09714,0.0175 2.00048,-0.78832 2.92341,-1.38181 -0.81986,0.68844 -2.08646,0.0611 -2.95873,0.68177 -7.14603,5.08484 -15.29783,7.03733 -23.793278,8.20226 -2.41116,0.17994 -4.81945,0.40369 -7.23347,0.53983 -15.968367,0.90053 -31.995528,0.51563 -47.965299,-0.0717 -6.18717,-0.31402 -13.641207,-0.63982 -19.847278,-1.1537 -7.000473,-0.57967 -7.229695,-0.76554 -13.3462771,-1.50775 -1.417148,-0.17195 -2.840999,-0.28583 -4.256062,-0.47624 l -4.626344,4.54784 z"
     sodipodi:nodetypes="cccscscscsssccscsscccsscsscccscccccccssccccsscccscssccc" />
  <path
     style="fill:none;stroke:#080a1d;stroke-width:0.0564453;stroke-linecap:round;stroke-linejoin:round;stroke-miterlimit:4;stroke-dasharray:none;stroke-opacity:1"
     d="m 118.22136,142.22235 0.14416,-0.0904 a 1.1639172,1.1639172 139.43821 0 0 0.26051,-0.22298 l 0.14949,-0.17217"
     id="path2084"
     inkscape:path-effect="#path-effect2185"
     inkscape:original-d="m 118.22136,142.22235 0.29102,-0.18249 0.26314,-0.30306"
     sodipodi:nodetypes="ccc" />
</svg>
