<svg width="912" height="713" viewBox="0 0 912 713" fill="none" xmlns="http://www.w3.org/2000/svg">
<path d="M432.061 107.267C447.846 80.3864 472.398 59.7544 501.595 48.8342C530.793 37.9139 562.858 37.3702 592.409 47.2942C621.959 57.2182 647.197 77.0059 663.884 103.336C680.572 129.665 687.694 160.935 684.055 191.894L680.02 225.88C712.113 238.361 740.781 258.29 763.66 284.026C786.539 309.761 802.974 340.566 811.611 373.9C820.248 407.234 820.839 442.143 813.336 475.751C805.832 509.358 790.449 540.701 768.455 567.197C746.46 593.692 718.484 614.581 686.831 628.141C655.179 641.702 620.757 647.546 586.403 645.192C552.048 642.837 518.745 632.352 489.239 614.601C459.732 596.849 434.867 572.339 416.692 543.091" stroke="#0284C7" stroke-width="79.6411" stroke-linecap="round" stroke-linejoin="round"/>
<path d="M36 439.144L371.649 389" stroke="#0284C7" stroke-width="70.0112" stroke-linecap="round" stroke-linejoin="round"/>
<path d="M179 192V586.393" stroke="#0284C7" stroke-width="73.1868" stroke-linecap="round" stroke-linejoin="round"/>
<path d="M410 282V676.393" stroke="#0284C7" stroke-width="73.1868" stroke-linecap="round" stroke-linejoin="round"/>
</svg>
